PathFileType	4	(X/Y/Z)	D:\TRACE\v60_Jaco2_6-2-23\JustBodyDRS_Motion1_5-platform.trc
DataRate	CameraRate	NumFrames	NumMarkers	Units	OrigDataRate	OrigDataStartFrame	OrigNumFrames
100.00	100.00	      42	5	mm	100.00	4189	      6702
Frame#	Time	Left_Front			Right_Front			Left_Aft			Right_Aft			Post			
		X1	Y1	Z1	X2	Y2	Z2	X3	Y3	Z3	X4	Y4	Z4	X5	Y5	Z5	

4189	41.880	-834.48676	29.77609	-633.59845	735.61469	30.35024	-638.74579	-742.11365	-6.85062	500.97723	700.24493	-7.99261	511.57465	-47.90151	1337.93311	-915.12579	
4190	41.890	-835.36011	29.36845	-633.64728	734.69464	29.91605	-638.91156	-742.80579	-6.66165	500.93048	699.36853	-7.73082	511.31873	-48.62883	1337.62817	-915.62878	
4191	41.900	-835.89874	29.16199	-633.52271	734.01575	29.66580	-638.84259	-743.65784	-6.35210	500.97253	698.51300	-7.59577	511.19141	-49.35170	1337.20569	-916.49567	
4192	41.910	-836.39911	28.93579	-633.50128	733.22754	29.63193	-638.84174	-744.62061	-6.02847	500.91245	698.18384	-7.24690	511.13654	-49.75402	1336.73010	-917.36487	
4193	41.920	-837.38806	28.66224	-633.70264	732.73120	29.50958	-638.93658	-745.09991	-5.81802	500.90097	697.42139	-6.98629	511.02682	-50.95299	1336.45886	-918.46490	
4194	41.930	-838.41663	28.22864	-633.82208	731.78821	29.08777	-639.07245	-745.81537	-5.73923	501.01303	696.50006	-6.98643	510.87946	-51.08188	1336.14697	-919.53687	
4195	41.940	-839.11108	28.04961	-633.97900	730.90302	28.67434	-639.21796	-746.77728	-5.82051	500.88434	695.55750	-6.80660	510.90631	-52.16590	1335.56750	-920.52997	
4196	41.950	-839.40637	27.68917	-633.63892	730.30432	28.40251	-639.11670	-747.40845	-5.59691	500.72287	695.08826	-6.42377	510.63998	-52.72221	1335.08508	-921.00720	
4197	41.960	-839.96417	27.51484	-633.69818	729.83490	28.21506	-639.06110	-747.86816	-5.25150	500.63950	694.32562	-6.35078	510.65494	-53.58632	1334.72791	-921.45227	
4198	41.970	-840.79541	27.25713	-633.74506	729.09619	28.20790	-639.20892	-748.68213	-4.93563	500.55807	693.61774	-6.11076	510.55130	-54.17531	1334.40063	-922.03455	
4199	41.980	-841.68628	27.24678	-634.06982	728.38739	28.07741	-639.22809	-749.35413	-5.06629	500.61234	692.68896	-5.92556	510.53775	-54.53723	1333.98865	-922.30872	
4200	41.990	-842.47083	26.79813	-634.13995	727.50201	27.49920	-639.46649	-750.05304	-4.54867	500.51630	692.28333	-5.85719	510.50159	-55.47800	1333.46912	-922.37543	
4201	42.000	-843.18842	26.20074	-634.35193	727.06055	26.87247	-639.51782	-750.52716	-4.38139	500.42902	691.33704	-5.87233	510.50455	-56.45508	1333.25720	-922.74634	
4202	42.010	-843.65546	26.05941	-634.28546	726.58734	26.69703	-639.44482	-751.26440	-4.31299	500.29367	690.70599	-5.42486	510.47580	-56.80671	1332.74927	-923.10651	
4203	42.020	-843.91840	26.04444	-634.25836	725.97626	26.71761	-639.45917	-751.91571	-4.07870	500.29190	690.27051	-5.41142	510.39090	-57.35413	1332.36230	-923.72925	
4204	42.030	-844.50952	25.64901	-634.22363	725.21179	26.47126	-639.74341	-752.48798	-3.70710	500.19052	690.00220	-5.19244	510.46368	-58.02663	1331.88562	-924.53613	
4205	42.040	-845.15112	25.22208	-634.41315	724.65997	26.00730	-640.06702	-752.98938	-3.42404	500.06772	689.64215	-4.57711	510.93506	-58.21845	1331.49915	-925.71271	
4206	42.050	-845.68622	24.83182	-634.54706	724.08002	25.51771	-639.97150	-753.29291	-3.29714	500.18002	688.38892	-4.80109	509.29987	-59.08242	1331.09412	-926.25323	
4207	42.060	-846.41119	24.29612	-634.70880	723.84320	25.15610	-639.86139	-753.62189	-3.61553	500.26547	687.83624	-4.60202	509.38364	-59.93900	1330.60120	-927.44513	
4208	42.070	-846.88940	23.90168	-634.61517	723.41669	24.81161	-640.06171	-754.20917	-3.46566	500.17822	687.17816	-4.31975	509.24289	-59.62033	1329.77893	-928.48383	
4209	42.080	-847.41949	23.72713	-634.93262	722.76379	24.46880	-640.22400	-754.61951	-3.27049	500.09177	687.01923	-3.86610	509.24857	-60.72930	1329.46460	-929.58459	
4210	42.090	-847.62115	23.42065	-635.05902	722.33600	24.13789	-640.30829	-755.10126	-2.84466	499.87106	686.43250	-3.78567	509.06473	-61.24801	1329.17529	-930.22479	
4211	42.100	-847.97437	23.13138	-635.16461	721.94147	23.95277	-640.38489	-755.37006	-2.62026	499.88779	685.60516	-3.83558	509.05298	-61.40541	1328.69543	-931.01813	
4212	42.110	-848.38983	22.52438	-635.15179	721.39270	23.54063	-640.42230	-755.60687	-2.38017	499.88159	685.25452	-3.37808	508.90424	-61.79198	1328.07568	-931.86163	
4213	42.120	-848.71844	22.19292	-635.38416	721.10669	23.18427	-640.43958	-755.97632	-2.20431	499.74817	685.21716	-3.05141	508.79861	-61.99203	1327.52759	-932.16504	
4214	42.130	-848.95135	22.14386	-635.19220	720.64850	22.72925	-640.66705	-756.39819	-2.08307	499.74615	685.03076	-2.80835	508.85397	-62.11349	1327.09998	-932.50781	
4215	42.140	-849.27362	21.90102	-635.46246	720.44836	22.39791	-640.69781	-756.90686	-1.62181	499.81461	684.74603	-2.64035	508.77359	-62.54258	1326.48267	-932.82050	
4216	42.150	-849.71704	21.53613	-635.48651	720.17151	22.03568	-640.89014	-757.24451	-1.08914	499.63321	684.52063	-2.16559	508.70224	-63.16348	1326.02136	-933.73383	
4217	42.160	-850.00323	21.00234	-635.51001	720.00983	21.86950	-640.99829	-757.48608	-0.80474	499.53558	684.36914	-1.79857	508.56430	-63.02610	1325.80042	-934.58746	
4218	42.170	-850.34833	20.46406	-635.54950	719.95013	21.52097	-640.99445	-757.84436	-0.43972	499.32565	684.03906	-1.78668	508.49048	-63.41097	1325.19592	-935.41187	
4219	42.180	-850.48621	20.19425	-635.64600	719.79053	21.16577	-641.08508	-758.18256	-0.04674	499.13437	683.73682	-1.53780	508.32520	-63.78537	1324.32019	-936.52594	
4220	42.190	-850.60101	19.76752	-635.75922	719.59686	20.49806	-641.23145	-758.32623	0.18668	499.10715	683.60114	-1.19924	508.30063	-63.63057	1323.63074	-937.64502	
4221	42.200	-850.69495	19.45353	-635.92859	719.35754	19.99667	-641.42487	-758.67432	0.75461	499.16968	683.44080	-0.84931	508.32516	-63.68178	1323.16516	-938.50073	
4222	42.210	-850.96814	19.05286	-635.97821	719.29785	19.72049	-641.51056	-758.36029	0.64691	498.96921	683.25397	-0.58932	508.12778	-63.97541	1322.62781	-940.23370	
4223	42.220	-851.07703	18.61326	-636.18475	719.32458	19.41372	-641.53845	-758.50201	1.14169	498.77390	683.28223	-0.24022	507.91489	-64.00289	1321.97339	-940.70514	
4224	42.230	-850.95978	18.25871	-636.29504	719.27173	19.06138	-641.67645	-758.65161	1.39485	498.77689	683.25146	-0.10860	507.88232	-63.77190	1321.47839	-941.78210	
4225	42.240	-850.92505	17.80634	-636.48730	719.12390	18.55266	-641.67871	-758.66913	1.56803	498.71683	683.21185	0.24027	507.88956	-64.25875	1321.04260	-942.61218	
4226	42.250	-850.88416	17.37748	-636.66382	719.01721	18.05430	-641.82465	-758.99341	2.29111	498.42841	683.09290	0.54869	507.84079	-64.36140	1320.16772	-943.23822	
4227	42.260	-850.93842	17.00787	-636.73706	718.98102	17.65383	-641.98749	-758.71613	2.25814	498.55652	682.93396	0.81324	507.77768	-64.03920	1319.54077	-944.04279	
4228	42.270	-850.98907	16.53018	-636.84796	719.03607	17.33260	-642.13593	-758.85388	2.83544	498.47397	682.85455	1.02070	507.65613	-64.26202	1318.99219	-944.81189	
4229	42.280	-850.98840	16.02120	-636.81287	719.08911	16.90080	-642.13403	-758.88483	3.23722	498.31415	682.81012	1.35729	507.57108	-64.38803	1318.37378	-945.38953	
4230	42.290	-850.95648	15.42167	-636.89722	719.14783	16.60129	-642.16449	-758.97430	3.53956	498.11053	683.34045	2.08854	508.03329	-64.59238	1317.89185	-946.70081	
